# xmcd
#
# Track frame offsets:
#	150
#	15987
#	34309
#	53821
#	73806
#	94508
#	113722
#	130516
#	146946
#	161817
#	178725
#	216865
#	233999
#	250277
#	270020
#	290444
#
# Disc length: 4129 seconds
#
# Revision: 8
# Processed by: cddbd v1.5.2PL0 Copyright (c) Steve Scherf et al.
# Submitted via: EasyCDDAExtractor 15.3.0.1
#
DISCID=e4101f10
DTITLE=Toni Braxton - The Essential Toni Braxton - CD 2
DYEAR=2007
DGENRE=R&B/Hip-Hop
TTITLE0=The Heat
TTITLE1=Gimme Some
TTITLE2=There's No Me Without You
TTITLE3=Why Should I Care
TTITLE4=Spanish Guitar (Royal Garden's Flamenco Mix)
TTITLE5=I'm Still Breathing
TTITLE6=Me and My Boyfriend
TTITLE7=Give It Back (Featuring The Big Tymers)
TTITLE8=The Time Of Our Lives (The Official Song Of The 2006 FIFA World Cup) (
TTITLE8=Performed By Il Divo With Toni Braxton)
TTITLE9=He Wasn't Man Enough (Junior Vasquez Marathon Mix)
TTITLE10=Un-Break My Heart (Frankie Knuckles' Franktidrama Club Mix)
TTITLE11=Hit The Freeway (Featuring Loon)
TTITLE12=Come On Over Here
TTITLE13=Let It Flow
TTITLE14=The Little Things
TTITLE15=Good Life (A Cappella Single Mix) (Performed By The Braxtons)
EXTD=
EXTT0=
EXTT1=
EXTT2=
EXTT3=
EXTT4=
EXTT5=
EXTT6=
EXTT7=
EXTT8=
EXTT9=
EXTT10=
EXTT11=
EXTT12=
EXTT13=
EXTT14=
EXTT15=
PLAYORDER=
